# xmcd
#
# Track frame offsets: 
#        150
#        12115
#        22930
#        31848
#        43754
#        56092
#        66739
#        78613
#        93671
#        104888
#
# Disc length: 1596 seconds
#
# Revision: 0
# Processed by: cddbd v1.5.1PL0 Copyright (c) Steve Scherf et al.
# Submitted via: ExactAudioCopy v0.95a5
#
DISCID=88063a0a
DTITLE=Various Artist - This Is Country 2
DYEAR=2002
DGENRE=Country
TTITLE0=W.Nelson,P.Baskirk,W.Breel - Night Life
TTITLE1=Callender,Shanklin - Primrose Lane
TTITLE2=Unknown - Come On In
TTITLE3=A.Razaf,E.Blake - Memories Of You
TTITLE4=T.Gentry - Loving You Is Killing Me
TTITLE5=Unknown - Little Miss Blue Eyes
TTITLE6=Dallas,Frazier - Elvira
TTITLE7=W.Nelson - Face Of A Fighter
TTITLE8=B.Willis - San Antonio Rose
TTITLE9=D.Fargo - That Was Yesterday
EXTD=
EXTT0=
EXTT1=
EXTT2=
EXTT3=
EXTT4=
EXTT5=
EXTT6=
EXTT7=
EXTT8=
EXTT9=
PLAYORDER=
